<?xml version="1.0" encoding="utf-8"?><svg version="1.1" id="Ebene_1" xmlns="http://www.w3.org/2000/svg" xmlns:xlink="http://www.w3.org/1999/xlink" x="0px" y="0px" viewBox="0 0 89.8 40" style="enable-background:new 0 0 89.8 40;" xml:space="preserve"><style type="text/css">.st0{fill:#FFFFFF;}</style><g><path d="M85.6,13.2c-0.9-2.2-2.3-4.2-4-5.9s-3.7-3.1-5.9-4c-2.3-1-4.8-1.5-7.3-1.5c-2.5,0-5,0.5-7.3,1.5c-2.2,0.9-4.2,2.3-5.9,4c-1.7,1.7-3.1,3.7-4,5.9c-1,2.3-1.5,4.8-1.5,7.3c0,2.5,0.5,5,1.5,7.3c0.9,2.2,2.3,4.2,4,5.9c1.7,1.7,3.7,3.1,5.9,4c2.3,1,4.8,1.5,7.3,1.5c2.5,0,5-0.5,7.3-1.5c2.2-0.9,4.2-2.3,5.9-4c1.7-1.7,3.1-3.7,4-5.9c1-2.3,1.5-4.8,1.5-7.3C87.1,18,86.6,15.6,85.6,13.2z M65.7,34.8c-2-0.4-5.3-1.6-7.4-3.5l7.4-6.9V34.8z M65.7,18.6L55.8,28c-1.4-2.2-2-4.8-2-7.5c0-3.8,1.3-7.5,4-10.2c2.2-2.2,5.8-3.6,7.8-4.1V18.6z M69.7,34.8V24.4l7.4,6.9C75,33.2,72.7,34.4,69.7,34.8z M80.3,28l-10.6-9.5V6.3c4,0.4,6.3,1.9,8.5,4.1c2.7,2.7,4.2,6.3,4.2,10.2C82.4,23.2,81.7,25.8,80.3,28z"/><g><path d="M21.8,39l-1.4-1.3c-0.2-0.2-4.2-3.7-8.2-8.5c-2.4-2.9-4.4-5.5-5.7-8c-0.9-1.5-1.5-2.9-2-4.3c-0.5-1.6-0.8-3-0.8-4.3c0-2.6,0.7-4.9,2.2-6.8C6.5,5,7.3,4.2,8.2,3.6c0.9-0.6,1.9-1,2.9-1.3C13.4,1.7,15.8,2,18,3c1.4,0.7,2.7,1.6,3.8,2.9C23,4.6,24.3,3.7,25.7,3c2.2-1,4.6-1.3,6.9-0.7c1,0.3,2,0.7,2.9,1.3c0.9,0.6,1.7,1.4,2.4,2.2c1.4,1.9,2.2,4.2,2.2,6.8c0,1.3-0.3,2.8-0.8,4.3c-0.5,1.3-1.1,2.8-2,4.3c-1.4,2.4-3.3,5.1-5.7,8c-4.1,4.8-8.1,8.4-8.2,8.5L21.8,39z M20.4,34.6L20.4,34.6L20.4,34.6z M13.6,6.3c-0.5,0-1,0.1-1.4,0.2c-1.2,0.3-2.2,1-3,2C8.4,9.6,7.9,11,7.9,12.6c0,1.7,0.7,3.9,2.2,6.5c1.3,2.2,3,4.7,5.3,7.3c2.5,2.9,4.9,5.4,6.4,6.8c1.5-1.4,4-3.9,6.4-6.8c2.2-2.6,4-5.1,5.3-7.3c1.5-2.6,2.2-4.8,2.2-6.5c0-1.6-0.4-3.1-1.3-4.2c-0.8-1-1.8-1.7-3-2c-1.3-0.3-2.7-0.2-4,0.4c-1.5,0.7-2.8,2-3.8,3.8L21.8,14L20,10.6c-1-1.8-2.3-3-3.8-3.7C15.4,6.5,14.5,6.3,13.6,6.3z"/></g></g><g><path class="st0" d="M84.8,12.4c-0.9-2.2-2.3-4.2-4-5.9s-3.7-3.1-5.9-4c-2.3-1-4.8-1.5-7.3-1.5c-2.5,0-5,0.5-7.3,1.5c-2.2,0.9-4.2,2.3-5.9,4c-1.7,1.7-3.1,3.7-4,5.9c-1,2.3-1.5,4.8-1.5,7.3c0,2.5,0.5,5,1.5,7.3c0.9,2.2,2.3,4.2,4,5.9c1.7,1.7,3.7,3.1,5.9,4c2.3,1,4.8,1.5,7.3,1.5c2.5,0,5-0.5,7.3-1.5c2.2-0.9,4.2-2.3,5.9-4c1.7-1.7,3.1-3.7,4-5.9c1-2.3,1.5-4.8,1.5-7.3C86.3,17.2,85.8,14.7,84.8,12.4z M64.9,33.9c-2-0.4-5.3-1.6-7.4-3.5l7.4-6.9V33.9z M64.9,17.7L55,27.2c-1.4-2.2-2-4.8-2-7.5c0-3.8,1.3-7.5,4-10.2c2.2-2.2,5.8-3.6,7.8-4.1V17.7z M68.9,33.9V23.6l7.4,6.9C74.2,32.3,71.9,33.5,68.9,33.9z M79.5,27.2l-10.6-9.5V5.4c4,0.4,6.3,1.9,8.5,4.1c2.7,2.7,4.2,6.3,4.2,10.2C81.6,22.4,80.8,24.9,79.5,27.2z"/><g><path class="st0" d="M21,38.2l-1.4-1.3c-0.2-0.2-4.2-3.7-8.2-8.5c-2.4-2.9-4.4-5.5-5.7-8c-0.9-1.5-1.5-2.9-2-4.3c-0.5-1.6-0.8-3-0.8-4.3C2.8,9.2,3.5,6.9,5,5c0.7-0.9,1.5-1.6,2.4-2.2c0.9-0.6,1.9-1,2.9-1.3c2.3-0.6,4.7-0.3,6.9,0.7C18.6,2.8,19.9,3.8,21,5c1.1-1.2,2.4-2.2,3.8-2.9c2.2-1,4.6-1.3,6.9-0.7c1,0.3,2,0.7,2.9,1.3c0.9,0.6,1.7,1.4,2.4,2.2c1.4,1.9,2.2,4.2,2.2,6.8c0,1.3-0.3,2.8-0.8,4.3c-0.5,1.3-1.1,2.8-2,4.3c-1.4,2.4-3.3,5.1-5.7,8c-4.1,4.8-8.1,8.4-8.2,8.5L21,38.2z M19.6,33.7L19.6,33.7L19.6,33.7z M12.8,5.4c-0.5,0-1,0.1-1.4,0.2c-1.2,0.3-2.2,1-3,2c-0.8,1.1-1.3,2.5-1.3,4.2c0,1.7,0.7,3.9,2.2,6.5c1.3,2.2,3,4.7,5.3,7.3c2.5,2.9,4.9,5.4,6.4,6.8c1.5-1.4,4-3.9,6.4-6.8c2.2-2.6,4-5.1,5.3-7.3c1.5-2.6,2.2-4.8,2.2-6.5c0-1.6-0.4-3.1-1.3-4.2c-0.8-1-1.8-1.7-3-2c-1.3-0.3-2.7-0.2-4,0.4c-1.5,0.7-2.8,2-3.8,3.8L21,13.2l-1.9-3.4c-1-1.8-2.3-3-3.8-3.7C14.5,5.6,13.7,5.4,12.8,5.4z"/></g></g></svg>